<svg width="1200" height="630" viewBox="0 0 1200 630" fill="none" xmlns="http://www.w3.org/2000/svg">
<rect width="1200" height="630" fill="#0E0F15"/>
<path d="M329.918 351V333.545H340.741V335.812H332.551V341.131H339.966V343.389H332.551V351H329.918ZM343.612 351V337.909H346.075V339.989H346.211C346.45 339.284 346.87 338.73 347.472 338.327C348.08 337.918 348.768 337.713 349.535 337.713C349.694 337.713 349.881 337.719 350.097 337.73C350.319 337.741 350.492 337.756 350.617 337.773V340.21C350.515 340.182 350.333 340.151 350.072 340.116C349.81 340.077 349.549 340.057 349.288 340.057C348.685 340.057 348.148 340.185 347.677 340.44C347.211 340.69 346.842 341.04 346.569 341.489C346.296 341.932 346.16 342.437 346.16 343.006V351H343.612ZM357.868 351.264C356.641 351.264 355.57 350.983 354.655 350.42C353.74 349.858 353.03 349.071 352.524 348.06C352.018 347.048 351.766 345.866 351.766 344.514C351.766 343.156 352.018 341.969 352.524 340.952C353.03 339.935 353.74 339.145 354.655 338.582C355.57 338.02 356.641 337.739 357.868 337.739C359.095 337.739 360.166 338.02 361.081 338.582C361.996 339.145 362.706 339.935 363.212 340.952C363.717 341.969 363.97 343.156 363.97 344.514C363.97 345.866 363.717 347.048 363.212 348.06C362.706 349.071 361.996 349.858 361.081 350.42C360.166 350.983 359.095 351.264 357.868 351.264ZM357.876 349.125C358.672 349.125 359.331 348.915 359.854 348.494C360.376 348.074 360.763 347.514 361.013 346.815C361.268 346.116 361.396 345.347 361.396 344.506C361.396 343.67 361.268 342.903 361.013 342.205C360.763 341.5 360.376 340.935 359.854 340.509C359.331 340.082 358.672 339.869 357.876 339.869C357.075 339.869 356.411 340.082 355.882 340.509C355.359 340.935 354.97 341.5 354.714 342.205C354.464 342.903 354.339 343.67 354.339 344.506C354.339 345.347 354.464 346.116 354.714 346.815C354.97 347.514 355.359 348.074 355.882 348.494C356.411 348.915 357.075 349.125 357.876 349.125ZM369.363 343.227V351H366.815V337.909H369.261V340.04H369.423C369.724 339.347 370.195 338.79 370.837 338.369C371.485 337.949 372.3 337.739 373.283 337.739C374.175 337.739 374.957 337.926 375.627 338.301C376.298 338.67 376.817 339.222 377.187 339.955C377.556 340.687 377.741 341.594 377.741 342.673V351H375.192V342.98C375.192 342.031 374.945 341.29 374.451 340.756C373.957 340.216 373.278 339.946 372.414 339.946C371.823 339.946 371.298 340.074 370.837 340.33C370.383 340.585 370.022 340.96 369.755 341.455C369.494 341.943 369.363 342.534 369.363 343.227ZM387.269 337.909V339.955H380.119V337.909H387.269ZM382.036 334.773H384.585V347.156C384.585 347.651 384.658 348.023 384.806 348.273C384.954 348.517 385.144 348.685 385.377 348.776C385.616 348.861 385.874 348.903 386.153 348.903C386.357 348.903 386.536 348.889 386.69 348.861C386.843 348.832 386.962 348.81 387.048 348.793L387.508 350.898C387.36 350.955 387.15 351.011 386.877 351.068C386.604 351.131 386.263 351.165 385.854 351.17C385.184 351.182 384.559 351.062 383.979 350.812C383.4 350.562 382.931 350.176 382.573 349.653C382.215 349.131 382.036 348.474 382.036 347.685V334.773ZM397.356 342.52V344.727H389.617V342.52H397.356ZM406.394 351.264C405.104 351.264 403.994 350.989 403.062 350.438C402.136 349.881 401.42 349.099 400.914 348.094C400.414 347.082 400.164 345.898 400.164 344.54C400.164 343.199 400.414 342.017 400.914 340.994C401.42 339.972 402.124 339.173 403.028 338.599C403.937 338.026 404.999 337.739 406.215 337.739C406.954 337.739 407.67 337.861 408.363 338.105C409.056 338.349 409.678 338.733 410.229 339.256C410.781 339.778 411.215 340.457 411.533 341.293C411.852 342.122 412.011 343.131 412.011 344.318V345.222H401.604V343.312H409.513C409.513 342.642 409.377 342.048 409.104 341.531C408.832 341.009 408.448 340.597 407.954 340.295C407.465 339.994 406.891 339.844 406.232 339.844C405.516 339.844 404.891 340.02 404.357 340.372C403.829 340.719 403.42 341.173 403.13 341.736C402.846 342.293 402.704 342.898 402.704 343.551V345.043C402.704 345.918 402.857 346.662 403.164 347.276C403.477 347.889 403.911 348.358 404.468 348.682C405.025 349 405.675 349.159 406.42 349.159C406.903 349.159 407.343 349.091 407.741 348.955C408.138 348.812 408.482 348.602 408.772 348.324C409.062 348.045 409.283 347.702 409.437 347.293L411.849 347.727C411.656 348.437 411.309 349.06 410.809 349.594C410.315 350.122 409.692 350.534 408.942 350.83C408.198 351.119 407.349 351.264 406.394 351.264ZM417.386 343.227V351H414.838V337.909H417.284V340.04H417.446C417.747 339.347 418.219 338.79 418.861 338.369C419.509 337.949 420.324 337.739 421.307 337.739C422.199 337.739 422.98 337.926 423.651 338.301C424.321 338.67 424.841 339.222 425.21 339.955C425.58 340.687 425.764 341.594 425.764 342.673V351H423.216V342.98C423.216 342.031 422.969 341.29 422.474 340.756C421.98 340.216 421.301 339.946 420.438 339.946C419.847 339.946 419.321 340.074 418.861 340.33C418.406 340.585 418.045 340.96 417.778 341.455C417.517 341.943 417.386 342.534 417.386 343.227ZM434.082 351.256C433.026 351.256 432.082 350.986 431.253 350.446C430.429 349.901 429.781 349.125 429.31 348.119C428.844 347.108 428.611 345.895 428.611 344.48C428.611 343.065 428.847 341.855 429.318 340.849C429.795 339.844 430.449 339.074 431.278 338.54C432.108 338.006 433.048 337.739 434.099 337.739C434.912 337.739 435.565 337.875 436.06 338.148C436.56 338.415 436.946 338.727 437.219 339.085C437.497 339.443 437.713 339.759 437.866 340.031H438.02V333.545H440.568V351H438.08V348.963H437.866C437.713 349.241 437.491 349.56 437.202 349.918C436.918 350.276 436.526 350.588 436.026 350.855C435.526 351.122 434.878 351.256 434.082 351.256ZM434.645 349.082C435.378 349.082 435.997 348.889 436.503 348.503C437.014 348.111 437.401 347.568 437.662 346.875C437.929 346.182 438.062 345.375 438.062 344.455C438.062 343.545 437.932 342.75 437.67 342.068C437.409 341.386 437.026 340.855 436.52 340.474C436.014 340.094 435.389 339.903 434.645 339.903C433.878 339.903 433.239 340.102 432.727 340.5C432.216 340.898 431.83 341.44 431.568 342.128C431.313 342.815 431.185 343.591 431.185 344.455C431.185 345.33 431.315 346.116 431.577 346.815C431.838 347.514 432.224 348.068 432.736 348.477C433.253 348.881 433.889 349.082 434.645 349.082ZM455.457 351.256C454.401 351.256 453.457 350.986 452.628 350.446C451.804 349.901 451.156 349.125 450.685 348.119C450.219 347.108 449.986 345.895 449.986 344.48C449.986 343.065 450.222 341.855 450.693 340.849C451.17 339.844 451.824 339.074 452.653 338.54C453.483 338.006 454.423 337.739 455.474 337.739C456.287 337.739 456.94 337.875 457.435 338.148C457.935 338.415 458.321 338.727 458.594 339.085C458.872 339.443 459.088 339.759 459.241 340.031H459.395V333.545H461.943V351H459.455V348.963H459.241C459.088 349.241 458.866 349.56 458.577 349.918C458.293 350.276 457.901 350.588 457.401 350.855C456.901 351.122 456.253 351.256 455.457 351.256ZM456.02 349.082C456.753 349.082 457.372 348.889 457.878 348.503C458.389 348.111 458.776 347.568 459.037 346.875C459.304 346.182 459.438 345.375 459.438 344.455C459.438 343.545 459.307 342.75 459.045 342.068C458.784 341.386 458.401 340.855 457.895 340.474C457.389 340.094 456.764 339.903 456.02 339.903C455.253 339.903 454.614 340.102 454.102 340.5C453.591 340.898 453.205 341.44 452.943 342.128C452.688 342.815 452.56 343.591 452.56 344.455C452.56 345.33 452.69 346.116 452.952 346.815C453.213 347.514 453.599 348.068 454.111 348.477C454.628 348.881 455.264 349.082 456.02 349.082ZM471.222 351.264C469.933 351.264 468.822 350.989 467.89 350.438C466.964 349.881 466.248 349.099 465.742 348.094C465.242 347.082 464.992 345.898 464.992 344.54C464.992 343.199 465.242 342.017 465.742 340.994C466.248 339.972 466.952 339.173 467.856 338.599C468.765 338.026 469.827 337.739 471.043 337.739C471.782 337.739 472.498 337.861 473.191 338.105C473.884 338.349 474.506 338.733 475.058 339.256C475.609 339.778 476.043 340.457 476.362 341.293C476.68 342.122 476.839 343.131 476.839 344.318V345.222H466.433V343.312H474.342C474.342 342.642 474.205 342.048 473.933 341.531C473.66 341.009 473.276 340.597 472.782 340.295C472.293 339.994 471.719 339.844 471.06 339.844C470.344 339.844 469.719 340.02 469.185 340.372C468.657 340.719 468.248 341.173 467.958 341.736C467.674 342.293 467.532 342.898 467.532 343.551V345.043C467.532 345.918 467.685 346.662 467.992 347.276C468.305 347.889 468.739 348.358 469.296 348.682C469.853 349 470.504 349.159 471.248 349.159C471.731 349.159 472.171 349.091 472.569 348.955C472.967 348.812 473.31 348.602 473.6 348.324C473.89 348.045 474.112 347.702 474.265 347.293L476.677 347.727C476.484 348.437 476.137 349.06 475.637 349.594C475.143 350.122 474.521 350.534 473.771 350.83C473.026 351.119 472.177 351.264 471.222 351.264ZM490.49 337.909L485.743 351H483.016L478.26 337.909H480.996L484.311 347.983H484.447L487.754 337.909H490.49ZM498.082 351.264C496.792 351.264 495.681 350.989 494.749 350.438C493.823 349.881 493.107 349.099 492.602 348.094C492.102 347.082 491.852 345.898 491.852 344.54C491.852 343.199 492.102 342.017 492.602 340.994C493.107 339.972 493.812 339.173 494.715 338.599C495.624 338.026 496.687 337.739 497.903 337.739C498.641 337.739 499.357 337.861 500.05 338.105C500.744 338.349 501.366 338.733 501.917 339.256C502.468 339.778 502.903 340.457 503.221 341.293C503.539 342.122 503.698 343.131 503.698 344.318V345.222H493.292V343.312H501.201C501.201 342.642 501.065 342.048 500.792 341.531C500.519 341.009 500.136 340.597 499.641 340.295C499.153 339.994 498.579 339.844 497.92 339.844C497.204 339.844 496.579 340.02 496.045 340.372C495.516 340.719 495.107 341.173 494.817 341.736C494.533 342.293 494.391 342.898 494.391 343.551V345.043C494.391 345.918 494.545 346.662 494.852 347.276C495.164 347.889 495.599 348.358 496.156 348.682C496.712 349 497.363 349.159 498.107 349.159C498.59 349.159 499.031 349.091 499.428 348.955C499.826 348.812 500.17 348.602 500.46 348.324C500.749 348.045 500.971 347.702 501.124 347.293L503.536 347.727C503.343 348.437 502.996 349.06 502.496 349.594C502.002 350.122 501.38 350.534 500.63 350.83C499.886 351.119 499.036 351.264 498.082 351.264ZM509.074 333.545V351H506.526V333.545H509.074ZM518.016 351.264C516.789 351.264 515.718 350.983 514.803 350.42C513.888 349.858 513.178 349.071 512.673 348.06C512.167 347.048 511.914 345.866 511.914 344.514C511.914 343.156 512.167 341.969 512.673 340.952C513.178 339.935 513.888 339.145 514.803 338.582C515.718 338.02 516.789 337.739 518.016 337.739C519.244 337.739 520.315 338.02 521.229 338.582C522.144 339.145 522.854 339.935 523.36 340.952C523.866 341.969 524.119 343.156 524.119 344.514C524.119 345.866 523.866 347.048 523.36 348.06C522.854 349.071 522.144 349.858 521.229 350.42C520.315 350.983 519.244 351.264 518.016 351.264ZM518.025 349.125C518.82 349.125 519.479 348.915 520.002 348.494C520.525 348.074 520.911 347.514 521.161 346.815C521.417 346.116 521.545 345.347 521.545 344.506C521.545 343.67 521.417 342.903 521.161 342.205C520.911 341.5 520.525 340.935 520.002 340.509C519.479 340.082 518.82 339.869 518.025 339.869C517.224 339.869 516.559 340.082 516.031 340.509C515.508 340.935 515.119 341.5 514.863 342.205C514.613 342.903 514.488 343.67 514.488 344.506C514.488 345.347 514.613 346.116 514.863 346.815C515.119 347.514 515.508 348.074 516.031 348.494C516.559 348.915 517.224 349.125 518.025 349.125ZM526.963 355.909V337.909H529.452V340.031H529.665C529.813 339.759 530.026 339.443 530.304 339.085C530.582 338.727 530.969 338.415 531.463 338.148C531.957 337.875 532.611 337.739 533.423 337.739C534.48 337.739 535.423 338.006 536.253 338.54C537.082 339.074 537.733 339.844 538.205 340.849C538.682 341.855 538.92 343.065 538.92 344.48C538.92 345.895 538.685 347.108 538.213 348.119C537.741 349.125 537.094 349.901 536.27 350.446C535.446 350.986 534.506 351.256 533.449 351.256C532.653 351.256 532.003 351.122 531.497 350.855C530.997 350.588 530.605 350.276 530.321 349.918C530.037 349.56 529.818 349.241 529.665 348.963H529.511V355.909H526.963ZM529.46 344.455C529.46 345.375 529.594 346.182 529.861 346.875C530.128 347.568 530.514 348.111 531.02 348.503C531.526 348.889 532.145 349.082 532.878 349.082C533.639 349.082 534.276 348.881 534.787 348.477C535.298 348.068 535.685 347.514 535.946 346.815C536.213 346.116 536.347 345.33 536.347 344.455C536.347 343.591 536.216 342.815 535.955 342.128C535.699 341.44 535.313 340.898 534.795 340.5C534.284 340.102 533.645 339.903 532.878 339.903C532.139 339.903 531.514 340.094 531.003 340.474C530.497 340.855 530.114 341.386 529.852 342.068C529.591 342.75 529.46 343.545 529.46 344.455ZM547.418 351.264C546.128 351.264 545.017 350.989 544.085 350.438C543.159 349.881 542.443 349.099 541.938 348.094C541.438 347.082 541.188 345.898 541.188 344.54C541.188 343.199 541.438 342.017 541.938 340.994C542.443 339.972 543.148 339.173 544.051 338.599C544.96 338.026 546.023 337.739 547.239 337.739C547.977 337.739 548.693 337.861 549.386 338.105C550.08 338.349 550.702 338.733 551.253 339.256C551.804 339.778 552.239 340.457 552.557 341.293C552.875 342.122 553.034 343.131 553.034 344.318V345.222H542.628V343.312H550.537C550.537 342.642 550.401 342.048 550.128 341.531C549.855 341.009 549.472 340.597 548.977 340.295C548.489 339.994 547.915 339.844 547.256 339.844C546.54 339.844 545.915 340.02 545.381 340.372C544.852 340.719 544.443 341.173 544.153 341.736C543.869 342.293 543.727 342.898 543.727 343.551V345.043C543.727 345.918 543.881 346.662 544.188 347.276C544.5 347.889 544.935 348.358 545.491 348.682C546.048 349 546.699 349.159 547.443 349.159C547.926 349.159 548.366 349.091 548.764 348.955C549.162 348.812 549.506 348.602 549.795 348.324C550.085 348.045 550.307 347.702 550.46 347.293L552.872 347.727C552.679 348.437 552.332 349.06 551.832 349.594C551.338 350.122 550.716 350.534 549.966 350.83C549.222 351.119 548.372 351.264 547.418 351.264ZM555.862 351V337.909H558.325V339.989H558.461C558.7 339.284 559.12 338.73 559.722 338.327C560.33 337.918 561.018 337.713 561.785 337.713C561.944 337.713 562.131 337.719 562.347 337.73C562.569 337.741 562.742 337.756 562.867 337.773V340.21C562.765 340.182 562.583 340.151 562.322 340.116C562.06 340.077 561.799 340.057 561.538 340.057C560.935 340.057 560.398 340.185 559.927 340.44C559.461 340.69 559.092 341.04 558.819 341.489C558.546 341.932 558.41 342.437 558.41 343.006V351H555.862ZM571.629 351V333.545H577.85C579.202 333.545 580.325 333.778 581.217 334.244C582.114 334.71 582.785 335.355 583.228 336.179C583.671 336.997 583.893 337.943 583.893 339.017C583.893 340.085 583.668 341.026 583.219 341.838C582.776 342.645 582.106 343.273 581.208 343.722C580.316 344.17 579.194 344.395 577.842 344.395H573.129V342.128H577.603C578.455 342.128 579.148 342.006 579.683 341.761C580.222 341.517 580.617 341.162 580.867 340.696C581.117 340.23 581.242 339.67 581.242 339.017C581.242 338.358 581.114 337.787 580.859 337.304C580.609 336.821 580.214 336.452 579.674 336.196C579.14 335.935 578.438 335.804 577.569 335.804H574.262V351H571.629ZM580.245 343.125L584.558 351H581.558L577.33 343.125H580.245ZM592.371 351.264C591.081 351.264 589.97 350.989 589.038 350.438C588.112 349.881 587.396 349.099 586.891 348.094C586.391 347.082 586.141 345.898 586.141 344.54C586.141 343.199 586.391 342.017 586.891 340.994C587.396 339.972 588.101 339.173 589.004 338.599C589.913 338.026 590.976 337.739 592.192 337.739C592.93 337.739 593.646 337.861 594.339 338.105C595.033 338.349 595.655 338.733 596.206 339.256C596.757 339.778 597.192 340.457 597.51 341.293C597.828 342.122 597.987 343.131 597.987 344.318V345.222H587.581V343.312H595.49C595.49 342.642 595.354 342.048 595.081 341.531C594.808 341.009 594.425 340.597 593.93 340.295C593.442 339.994 592.868 339.844 592.209 339.844C591.493 339.844 590.868 340.02 590.334 340.372C589.805 340.719 589.396 341.173 589.107 341.736C588.822 342.293 588.68 342.898 588.68 343.551V345.043C588.68 345.918 588.834 346.662 589.141 347.276C589.453 347.889 589.888 348.358 590.445 348.682C591.001 349 591.652 349.159 592.396 349.159C592.879 349.159 593.32 349.091 593.717 348.955C594.115 348.812 594.459 348.602 594.749 348.324C595.038 348.045 595.26 347.702 595.413 347.293L597.825 347.727C597.632 348.437 597.286 349.06 596.786 349.594C596.291 350.122 595.669 350.534 594.919 350.83C594.175 351.119 593.325 351.264 592.371 351.264ZM604.624 351.29C603.795 351.29 603.045 351.136 602.374 350.83C601.704 350.517 601.173 350.065 600.781 349.474C600.394 348.884 600.201 348.159 600.201 347.301C600.201 346.562 600.343 345.955 600.627 345.477C600.911 345 601.295 344.622 601.778 344.344C602.261 344.065 602.8 343.855 603.397 343.713C603.994 343.571 604.602 343.463 605.221 343.389C606.005 343.298 606.641 343.224 607.13 343.168C607.619 343.105 607.974 343.006 608.195 342.869C608.417 342.733 608.528 342.511 608.528 342.205V342.145C608.528 341.401 608.317 340.824 607.897 340.415C607.482 340.006 606.863 339.801 606.039 339.801C605.181 339.801 604.505 339.991 604.011 340.372C603.522 340.747 603.184 341.165 602.996 341.625L600.602 341.08C600.886 340.284 601.3 339.642 601.846 339.153C602.397 338.659 603.031 338.301 603.746 338.08C604.462 337.852 605.215 337.739 606.005 337.739C606.528 337.739 607.082 337.801 607.667 337.926C608.258 338.045 608.809 338.267 609.32 338.591C609.837 338.915 610.261 339.378 610.59 339.98C610.92 340.577 611.085 341.352 611.085 342.307V351H608.596V349.21H608.494C608.329 349.54 608.082 349.864 607.752 350.182C607.423 350.5 606.999 350.764 606.482 350.974C605.965 351.185 605.346 351.29 604.624 351.29ZM605.178 349.244C605.883 349.244 606.485 349.105 606.985 348.827C607.491 348.548 607.874 348.185 608.136 347.736C608.403 347.281 608.536 346.795 608.536 346.278V344.591C608.445 344.682 608.269 344.767 608.008 344.847C607.752 344.92 607.46 344.986 607.13 345.043C606.8 345.094 606.479 345.142 606.167 345.188C605.854 345.227 605.593 345.261 605.383 345.29C604.888 345.352 604.437 345.457 604.028 345.605C603.624 345.753 603.3 345.966 603.056 346.244C602.817 346.517 602.698 346.881 602.698 347.335C602.698 347.966 602.931 348.443 603.397 348.767C603.863 349.085 604.457 349.244 605.178 349.244ZM619.993 351.264C618.726 351.264 617.635 350.977 616.72 350.403C615.811 349.824 615.112 349.026 614.624 348.009C614.135 346.991 613.891 345.827 613.891 344.514C613.891 343.185 614.141 342.011 614.641 340.994C615.141 339.972 615.845 339.173 616.754 338.599C617.663 338.026 618.734 337.739 619.967 337.739C620.962 337.739 621.848 337.923 622.626 338.293C623.405 338.656 624.033 339.168 624.51 339.827C624.993 340.486 625.28 341.256 625.371 342.136H622.891C622.754 341.523 622.442 340.994 621.953 340.551C621.47 340.108 620.822 339.886 620.01 339.886C619.3 339.886 618.678 340.074 618.143 340.449C617.615 340.818 617.203 341.347 616.908 342.034C616.612 342.716 616.464 343.523 616.464 344.455C616.464 345.409 616.609 346.233 616.899 346.926C617.189 347.619 617.598 348.156 618.126 348.537C618.661 348.918 619.288 349.108 620.01 349.108C620.493 349.108 620.93 349.02 621.322 348.844C621.72 348.662 622.053 348.403 622.32 348.068C622.592 347.733 622.783 347.33 622.891 346.858H625.371C625.28 347.705 625.004 348.46 624.544 349.125C624.084 349.79 623.467 350.312 622.695 350.693C621.928 351.074 621.027 351.264 619.993 351.264ZM634.207 337.909V339.955H627.056V337.909H634.207ZM628.974 334.773H631.522V347.156C631.522 347.651 631.596 348.023 631.744 348.273C631.891 348.517 632.082 348.685 632.315 348.776C632.553 348.861 632.812 348.903 633.09 348.903C633.295 348.903 633.474 348.889 633.627 348.861C633.781 348.832 633.9 348.81 633.985 348.793L634.445 350.898C634.298 350.955 634.087 351.011 633.815 351.068C633.542 351.131 633.201 351.165 632.792 351.17C632.121 351.182 631.496 351.062 630.917 350.812C630.337 350.562 629.869 350.176 629.511 349.653C629.153 349.131 628.974 348.474 628.974 347.685V334.773ZM638.705 351.162C638.239 351.162 637.838 350.997 637.503 350.668C637.168 350.332 637 349.929 637 349.457C637 348.991 637.168 348.594 637.503 348.264C637.838 347.929 638.239 347.761 638.705 347.761C639.17 347.761 639.571 347.929 639.906 348.264C640.241 348.594 640.409 348.991 640.409 349.457C640.409 349.77 640.33 350.057 640.17 350.318C640.017 350.574 639.812 350.778 639.557 350.932C639.301 351.085 639.017 351.162 638.705 351.162ZM643.822 337.909H646.371V351.852C646.371 352.727 646.212 353.466 645.893 354.068C645.581 354.67 645.115 355.128 644.496 355.44C643.882 355.753 643.124 355.909 642.22 355.909C642.129 355.909 642.044 355.909 641.964 355.909C641.879 355.909 641.791 355.906 641.7 355.901V353.71C641.78 353.71 641.851 353.71 641.913 353.71C641.97 353.71 642.036 353.71 642.109 353.71C642.712 353.71 643.146 353.548 643.413 353.224C643.686 352.906 643.822 352.443 643.822 351.835V337.909ZM645.084 335.889C644.641 335.889 644.26 335.741 643.942 335.446C643.629 335.145 643.473 334.787 643.473 334.372C643.473 333.952 643.629 333.594 643.942 333.298C644.26 332.997 644.641 332.847 645.084 332.847C645.527 332.847 645.905 332.997 646.217 333.298C646.536 333.594 646.695 333.952 646.695 334.372C646.695 334.787 646.536 335.145 646.217 335.446C645.905 335.741 645.527 335.889 645.084 335.889ZM659.609 341.105L657.299 341.514C657.202 341.219 657.049 340.937 656.839 340.67C656.634 340.403 656.356 340.185 656.004 340.014C655.651 339.844 655.211 339.759 654.683 339.759C653.961 339.759 653.359 339.92 652.876 340.244C652.393 340.562 652.151 340.974 652.151 341.48C652.151 341.918 652.313 342.27 652.637 342.537C652.961 342.804 653.484 343.023 654.205 343.193L656.285 343.67C657.489 343.949 658.387 344.378 658.978 344.957C659.569 345.537 659.864 346.29 659.864 347.216C659.864 348 659.637 348.699 659.183 349.312C658.734 349.92 658.106 350.398 657.299 350.744C656.498 351.091 655.569 351.264 654.512 351.264C653.046 351.264 651.85 350.952 650.924 350.327C649.998 349.696 649.43 348.801 649.219 347.642L651.683 347.267C651.836 347.909 652.151 348.395 652.629 348.724C653.106 349.048 653.728 349.21 654.495 349.21C655.33 349.21 655.998 349.037 656.498 348.69C656.998 348.338 657.248 347.909 657.248 347.403C657.248 346.994 657.094 346.651 656.788 346.372C656.487 346.094 656.023 345.884 655.398 345.741L653.183 345.256C651.961 344.977 651.058 344.534 650.472 343.926C649.893 343.318 649.603 342.548 649.603 341.616C649.603 340.844 649.819 340.168 650.251 339.588C650.683 339.009 651.279 338.557 652.04 338.233C652.802 337.903 653.674 337.739 654.657 337.739C656.072 337.739 657.185 338.045 657.998 338.659C658.81 339.267 659.347 340.082 659.609 341.105ZM672.555 327.92V356.625H670.271V327.92H672.555ZM697.888 333.545V351H695.468L686.596 338.199H686.434V351H683.8V333.545H686.238L695.119 346.364H695.281V333.545H697.888ZM707.168 351.264C705.878 351.264 704.767 350.989 703.835 350.438C702.909 349.881 702.193 349.099 701.688 348.094C701.188 347.082 700.938 345.898 700.938 344.54C700.938 343.199 701.188 342.017 701.688 340.994C702.193 339.972 702.898 339.173 703.801 338.599C704.71 338.026 705.773 337.739 706.989 337.739C707.727 337.739 708.443 337.861 709.136 338.105C709.83 338.349 710.452 338.733 711.003 339.256C711.554 339.778 711.989 340.457 712.307 341.293C712.625 342.122 712.784 343.131 712.784 344.318V345.222H702.378V343.312H710.287C710.287 342.642 710.151 342.048 709.878 341.531C709.605 341.009 709.222 340.597 708.727 340.295C708.239 339.994 707.665 339.844 707.006 339.844C706.29 339.844 705.665 340.02 705.131 340.372C704.602 340.719 704.193 341.173 703.903 341.736C703.619 342.293 703.477 342.898 703.477 343.551V345.043C703.477 345.918 703.631 346.662 703.938 347.276C704.25 347.889 704.685 348.358 705.241 348.682C705.798 349 706.449 349.159 707.193 349.159C707.676 349.159 708.116 349.091 708.514 348.955C708.912 348.812 709.256 348.602 709.545 348.324C709.835 348.045 710.057 347.702 710.21 347.293L712.622 347.727C712.429 348.437 712.082 349.06 711.582 349.594C711.088 350.122 710.466 350.534 709.716 350.83C708.972 351.119 708.122 351.264 707.168 351.264ZM717.318 337.909L720.207 343.006L723.122 337.909H725.909L721.827 344.455L725.943 351H723.156L720.207 346.108L717.267 351H714.472L718.545 344.455L714.523 337.909H717.318ZM734.636 337.909V339.955H727.486V337.909H734.636ZM729.403 334.773H731.952V347.156C731.952 347.651 732.026 348.023 732.173 348.273C732.321 348.517 732.511 348.685 732.744 348.776C732.983 348.861 733.241 348.903 733.52 348.903C733.724 348.903 733.903 348.889 734.057 348.861C734.21 348.832 734.33 348.81 734.415 348.793L734.875 350.898C734.727 350.955 734.517 351.011 734.244 351.068C733.972 351.131 733.631 351.165 733.222 351.17C732.551 351.182 731.926 351.062 731.347 350.812C730.767 350.562 730.298 350.176 729.94 349.653C729.582 349.131 729.403 348.474 729.403 347.685V334.773ZM739.134 351.162C738.668 351.162 738.268 350.997 737.933 350.668C737.597 350.332 737.43 349.929 737.43 349.457C737.43 348.991 737.597 348.594 737.933 348.264C738.268 347.929 738.668 347.761 739.134 347.761C739.6 347.761 740.001 347.929 740.336 348.264C740.671 348.594 740.839 348.991 740.839 349.457C740.839 349.77 740.759 350.057 740.6 350.318C740.447 350.574 740.242 350.778 739.987 350.932C739.731 351.085 739.447 351.162 739.134 351.162ZM744.252 337.909H746.8V351.852C746.8 352.727 746.641 353.466 746.323 354.068C746.011 354.67 745.545 355.128 744.925 355.44C744.312 355.753 743.553 355.909 742.65 355.909C742.559 355.909 742.474 355.909 742.394 355.909C742.309 355.909 742.221 355.906 742.13 355.901V353.71C742.21 353.71 742.281 353.71 742.343 353.71C742.4 353.71 742.465 353.71 742.539 353.71C743.141 353.71 743.576 353.548 743.843 353.224C744.116 352.906 744.252 352.443 744.252 351.835V337.909ZM745.513 335.889C745.07 335.889 744.69 335.741 744.371 335.446C744.059 335.145 743.903 334.787 743.903 334.372C743.903 333.952 744.059 333.594 744.371 333.298C744.69 332.997 745.07 332.847 745.513 332.847C745.957 332.847 746.335 332.997 746.647 333.298C746.965 333.594 747.124 333.952 747.124 334.372C747.124 334.787 746.965 335.145 746.647 335.446C746.335 335.741 745.957 335.889 745.513 335.889ZM760.038 341.105L757.729 341.514C757.632 341.219 757.479 340.937 757.268 340.67C757.064 340.403 756.786 340.185 756.433 340.014C756.081 339.844 755.641 339.759 755.112 339.759C754.391 339.759 753.788 339.92 753.305 340.244C752.822 340.562 752.581 340.974 752.581 341.48C752.581 341.918 752.743 342.27 753.067 342.537C753.391 342.804 753.913 343.023 754.635 343.193L756.714 343.67C757.919 343.949 758.817 344.378 759.408 344.957C759.999 345.537 760.294 346.29 760.294 347.216C760.294 348 760.067 348.699 759.612 349.312C759.163 349.92 758.536 350.398 757.729 350.744C756.928 351.091 755.999 351.264 754.942 351.264C753.476 351.264 752.28 350.952 751.354 350.327C750.428 349.696 749.859 348.801 749.649 347.642L752.112 347.267C752.266 347.909 752.581 348.395 753.058 348.724C753.536 349.048 754.158 349.21 754.925 349.21C755.76 349.21 756.428 349.037 756.928 348.69C757.428 348.338 757.678 347.909 757.678 347.403C757.678 346.994 757.524 346.651 757.217 346.372C756.916 346.094 756.453 345.884 755.828 345.741L753.612 345.256C752.391 344.977 751.487 344.534 750.902 343.926C750.322 343.318 750.033 342.548 750.033 341.616C750.033 340.844 750.249 340.168 750.68 339.588C751.112 339.009 751.709 338.557 752.47 338.233C753.232 337.903 754.104 337.739 755.087 337.739C756.501 337.739 757.615 338.045 758.428 338.659C759.24 339.267 759.777 340.082 760.038 341.105ZM772.984 327.92V356.625H770.7V327.92H772.984ZM785.705 351H782.909L789.19 333.545H792.233L798.514 351H795.719L790.784 336.716H790.648L785.705 351ZM786.173 344.165H795.241V346.381H786.173V344.165ZM803.379 343.227V351H800.83V337.909H803.276V340.04H803.438C803.739 339.347 804.211 338.79 804.853 338.369C805.501 337.949 806.316 337.739 807.299 337.739C808.191 337.739 808.972 337.926 809.643 338.301C810.313 338.67 810.833 339.222 811.202 339.955C811.572 340.687 811.756 341.594 811.756 342.673V351H809.208V342.98C809.208 342.031 808.961 341.29 808.467 340.756C807.972 340.216 807.293 339.946 806.43 339.946C805.839 339.946 805.313 340.074 804.853 340.33C804.398 340.585 804.038 340.96 803.771 341.455C803.509 341.943 803.379 342.534 803.379 343.227ZM820.663 356.182C819.623 356.182 818.728 356.045 817.978 355.773C817.234 355.5 816.626 355.139 816.154 354.69C815.683 354.241 815.33 353.75 815.097 353.216L817.288 352.312C817.441 352.562 817.646 352.827 817.901 353.105C818.163 353.389 818.515 353.631 818.958 353.83C819.407 354.028 819.984 354.128 820.688 354.128C821.654 354.128 822.452 353.892 823.083 353.42C823.714 352.955 824.029 352.21 824.029 351.188V348.614H823.867C823.714 348.892 823.492 349.202 823.202 349.543C822.918 349.884 822.526 350.179 822.026 350.429C821.526 350.679 820.876 350.804 820.075 350.804C819.04 350.804 818.109 350.562 817.279 350.08C816.455 349.591 815.802 348.872 815.319 347.923C814.842 346.969 814.603 345.795 814.603 344.403C814.603 343.011 814.839 341.818 815.31 340.824C815.788 339.83 816.441 339.068 817.271 338.54C818.1 338.006 819.04 337.739 820.092 337.739C820.904 337.739 821.56 337.875 822.06 338.148C822.56 338.415 822.95 338.727 823.228 339.085C823.512 339.443 823.731 339.759 823.884 340.031H824.072V337.909H826.569V351.29C826.569 352.415 826.308 353.338 825.785 354.06C825.262 354.781 824.555 355.315 823.663 355.662C822.776 356.009 821.776 356.182 820.663 356.182ZM820.637 348.69C821.37 348.69 821.989 348.52 822.495 348.179C823.006 347.832 823.393 347.338 823.654 346.696C823.921 346.048 824.055 345.273 824.055 344.369C824.055 343.489 823.924 342.713 823.663 342.043C823.401 341.372 823.018 340.849 822.512 340.474C822.006 340.094 821.381 339.903 820.637 339.903C819.87 339.903 819.231 340.102 818.719 340.5C818.208 340.892 817.822 341.426 817.56 342.102C817.305 342.778 817.177 343.534 817.177 344.369C817.177 345.227 817.308 345.98 817.569 346.628C817.83 347.276 818.217 347.781 818.728 348.145C819.245 348.509 819.881 348.69 820.637 348.69ZM838.279 345.571V337.909H840.836V351H838.33V348.733H838.194C837.893 349.432 837.41 350.014 836.745 350.48C836.086 350.94 835.265 351.17 834.282 351.17C833.441 351.17 832.697 350.986 832.049 350.616C831.407 350.241 830.901 349.688 830.532 348.955C830.168 348.222 829.987 347.315 829.987 346.236V337.909H832.535V345.929C832.535 346.821 832.782 347.531 833.276 348.06C833.771 348.588 834.413 348.852 835.202 348.852C835.68 348.852 836.154 348.733 836.626 348.494C837.103 348.256 837.498 347.895 837.81 347.412C838.129 346.929 838.285 346.315 838.279 345.571ZM846.808 333.545V351H844.26V333.545H846.808ZM854.046 351.29C853.217 351.29 852.467 351.136 851.796 350.83C851.126 350.517 850.594 350.065 850.202 349.474C849.816 348.884 849.623 348.159 849.623 347.301C849.623 346.562 849.765 345.955 850.049 345.477C850.333 345 850.717 344.622 851.2 344.344C851.683 344.065 852.222 343.855 852.819 343.713C853.415 343.571 854.023 343.463 854.643 343.389C855.427 343.298 856.063 343.224 856.552 343.168C857.04 343.105 857.396 343.006 857.617 342.869C857.839 342.733 857.95 342.511 857.95 342.205V342.145C857.95 341.401 857.739 340.824 857.319 340.415C856.904 340.006 856.285 339.801 855.461 339.801C854.603 339.801 853.927 339.991 853.433 340.372C852.944 340.747 852.606 341.165 852.418 341.625L850.023 341.08C850.308 340.284 850.722 339.642 851.268 339.153C851.819 338.659 852.452 338.301 853.168 338.08C853.884 337.852 854.637 337.739 855.427 337.739C855.95 337.739 856.504 337.801 857.089 337.926C857.68 338.045 858.231 338.267 858.742 338.591C859.259 338.915 859.683 339.378 860.012 339.98C860.342 340.577 860.506 341.352 860.506 342.307V351H858.018V349.21H857.915C857.751 349.54 857.504 349.864 857.174 350.182C856.844 350.5 856.421 350.764 855.904 350.974C855.387 351.185 854.768 351.29 854.046 351.29ZM854.6 349.244C855.305 349.244 855.907 349.105 856.407 348.827C856.913 348.548 857.296 348.185 857.558 347.736C857.825 347.281 857.958 346.795 857.958 346.278V344.591C857.867 344.682 857.691 344.767 857.43 344.847C857.174 344.92 856.881 344.986 856.552 345.043C856.222 345.094 855.901 345.142 855.589 345.188C855.276 345.227 855.015 345.261 854.805 345.29C854.31 345.352 853.859 345.457 853.45 345.605C853.046 345.753 852.722 345.966 852.478 346.244C852.239 346.517 852.12 346.881 852.12 347.335C852.12 347.966 852.353 348.443 852.819 348.767C853.285 349.085 853.879 349.244 854.6 349.244ZM863.901 351V337.909H866.364V339.989H866.5C866.739 339.284 867.159 338.73 867.761 338.327C868.369 337.918 869.057 337.713 869.824 337.713C869.983 337.713 870.17 337.719 870.386 337.73C870.608 337.741 870.781 337.756 870.906 337.773V340.21C870.804 340.182 870.622 340.151 870.361 340.116C870.099 340.077 869.838 340.057 869.577 340.057C868.974 340.057 868.438 340.185 867.966 340.44C867.5 340.69 867.131 341.04 866.858 341.489C866.585 341.932 866.449 342.437 866.449 343.006V351H863.901Z" fill="#B6B6B6"/>
<path d="M331.523 313V266.455H342.773V285.136H361.114V266.455H372.341V313H361.114V294.295H342.773V313H331.523ZM389.239 313.591C387.011 313.591 385.034 313.22 383.307 312.477C381.595 311.72 380.239 310.583 379.239 309.068C378.254 307.538 377.761 305.621 377.761 303.318C377.761 301.379 378.102 299.742 378.784 298.409C379.466 297.076 380.405 295.992 381.602 295.159C382.799 294.326 384.178 293.697 385.739 293.273C387.299 292.833 388.966 292.538 390.739 292.386C392.723 292.205 394.322 292.015 395.534 291.818C396.746 291.606 397.625 291.311 398.17 290.932C398.731 290.538 399.011 289.985 399.011 289.273V289.159C399.011 287.992 398.61 287.091 397.807 286.455C397.004 285.818 395.92 285.5 394.557 285.5C393.087 285.5 391.905 285.818 391.011 286.455C390.117 287.091 389.549 287.97 389.307 289.091L379.057 288.727C379.36 286.606 380.14 284.712 381.398 283.045C382.67 281.364 384.413 280.045 386.625 279.091C388.852 278.121 391.527 277.636 394.648 277.636C396.875 277.636 398.928 277.902 400.807 278.432C402.686 278.947 404.322 279.705 405.716 280.705C407.11 281.689 408.186 282.902 408.943 284.341C409.716 285.78 410.102 287.424 410.102 289.273V313H399.648V308.136H399.375C398.754 309.318 397.958 310.318 396.989 311.136C396.034 311.955 394.905 312.568 393.602 312.977C392.314 313.386 390.86 313.591 389.239 313.591ZM392.67 306.318C393.867 306.318 394.943 306.076 395.898 305.591C396.867 305.106 397.64 304.439 398.216 303.591C398.792 302.727 399.08 301.727 399.08 300.591V297.273C398.761 297.439 398.375 297.591 397.92 297.727C397.481 297.864 396.996 297.992 396.466 298.114C395.936 298.235 395.39 298.341 394.83 298.432C394.269 298.523 393.731 298.606 393.216 298.682C392.17 298.848 391.277 299.106 390.534 299.455C389.807 299.803 389.246 300.258 388.852 300.818C388.473 301.364 388.284 302.015 388.284 302.773C388.284 303.924 388.693 304.803 389.511 305.409C390.345 306.015 391.398 306.318 392.67 306.318ZM436.739 278.091V286.273H414.284V278.091H436.739ZM418.966 313V276.318C418.966 273.621 419.473 271.386 420.489 269.614C421.504 267.826 422.913 266.492 424.716 265.614C426.519 264.72 428.602 264.273 430.966 264.273C432.511 264.273 433.966 264.394 435.33 264.636C436.708 264.864 437.731 265.068 438.398 265.25L436.625 273.386C436.216 273.25 435.716 273.136 435.125 273.045C434.549 272.955 434.004 272.909 433.489 272.909C432.186 272.909 431.292 273.197 430.807 273.773C430.322 274.348 430.08 275.136 430.08 276.136V313H418.966ZM442.085 313V278.091H453.199V313H442.085ZM447.653 274.023C446.093 274.023 444.752 273.508 443.631 272.477C442.509 271.432 441.949 270.174 441.949 268.705C441.949 267.25 442.509 266.008 443.631 264.977C444.752 263.932 446.093 263.409 447.653 263.409C449.229 263.409 450.57 263.932 451.676 264.977C452.797 266.008 453.358 267.25 453.358 268.705C453.358 270.174 452.797 271.432 451.676 272.477C450.57 273.508 449.229 274.023 447.653 274.023ZM473.023 313.5C470.447 313.5 468.106 312.833 466 311.5C463.894 310.167 462.212 308.167 460.955 305.5C459.697 302.833 459.068 299.523 459.068 295.568C459.068 291.462 459.72 288.083 461.023 285.432C462.326 282.78 464.03 280.818 466.136 279.545C468.258 278.273 470.538 277.636 472.977 277.636C474.811 277.636 476.379 277.955 477.682 278.591C478.985 279.212 480.061 280.015 480.909 281C481.758 281.985 482.402 283.008 482.841 284.068H483.068V266.455H494.182V313H483.182V307.341H482.841C482.371 308.417 481.705 309.424 480.841 310.364C479.977 311.303 478.894 312.061 477.591 312.636C476.303 313.212 474.78 313.5 473.023 313.5ZM476.886 304.841C478.235 304.841 479.386 304.462 480.341 303.705C481.295 302.932 482.03 301.848 482.545 300.455C483.061 299.061 483.318 297.424 483.318 295.545C483.318 293.636 483.061 291.992 482.545 290.614C482.045 289.235 481.311 288.174 480.341 287.432C479.386 286.689 478.235 286.318 476.886 286.318C475.508 286.318 474.341 286.697 473.386 287.455C472.432 288.212 471.705 289.28 471.205 290.659C470.72 292.038 470.477 293.667 470.477 295.545C470.477 297.424 470.727 299.061 471.227 300.455C471.727 301.848 472.447 302.932 473.386 303.705C474.341 304.462 475.508 304.841 476.886 304.841ZM514.801 313V306.591L537.415 275.591H514.824V266.455H551.642V272.864L529.028 303.864H551.619V313H514.801ZM558.523 313V278.091H569.636V313H558.523ZM564.091 274.023C562.53 274.023 561.189 273.508 560.068 272.477C558.947 271.432 558.386 270.174 558.386 268.705C558.386 267.25 558.947 266.008 560.068 264.977C561.189 263.932 562.53 263.409 564.091 263.409C565.667 263.409 567.008 263.932 568.114 264.977C569.235 266.008 569.795 267.25 569.795 268.705C569.795 270.174 569.235 271.432 568.114 272.477C567.008 273.508 565.667 274.023 564.091 274.023ZM596.415 278.091V286.273H574.392V278.091H596.415ZM579.006 269.727H590.119V302.023C590.119 302.705 590.225 303.258 590.438 303.682C590.665 304.091 590.991 304.386 591.415 304.568C591.839 304.735 592.347 304.818 592.938 304.818C593.362 304.818 593.809 304.78 594.278 304.705C594.763 304.614 595.127 304.538 595.369 304.477L597.051 312.5C596.521 312.652 595.771 312.841 594.801 313.068C593.847 313.295 592.703 313.439 591.369 313.5C588.763 313.621 586.528 313.318 584.665 312.591C582.816 311.848 581.4 310.697 580.415 309.136C579.445 307.576 578.975 305.614 579.006 303.25V269.727ZM602.085 313V278.091H613.199V313H602.085ZM607.653 274.023C606.093 274.023 604.752 273.508 603.631 272.477C602.509 271.432 601.949 270.174 601.949 268.705C601.949 267.25 602.509 266.008 603.631 264.977C604.752 263.932 606.093 263.409 607.653 263.409C609.229 263.409 610.57 263.932 611.676 264.977C612.797 266.008 613.358 267.25 613.358 268.705C613.358 270.174 612.797 271.432 611.676 272.477C610.57 273.508 609.229 274.023 607.653 274.023Z" fill="#E0E3E6"/>
<circle cx="186" cy="313" r="100" fill="#FFB800"/>
<path d="M243.604 259.113L146.888 258.577L147.431 266.132C147.505 267.172 148.4 267.987 149.473 267.993L228.702 268.432L237.134 268.432C238.228 268.432 238.962 269.544 238.5 270.5L200.12 346.529C199.651 347.458 200.014 348.593 200.948 349.118L207.736 352.931L250.055 269.116C252.362 264.545 248.878 259.143 243.604 259.113Z" fill="black" stroke="black" stroke-width="0.1"/>
<path d="M129.665 368.954L226.377 369.957L225.871 362.4C225.801 361.359 224.91 360.539 223.837 360.528L144.611 359.707L136.18 359.666C135.085 359.661 134.356 358.546 134.823 357.592L173.57 281.749C174.044 280.822 173.686 279.686 172.754 279.156L165.985 275.31L123.262 358.92C120.932 363.48 124.39 368.899 129.665 368.954Z" fill="black" stroke="black" stroke-width="0.1"/>
<rect x="151" y="309" width="70" height="8" fill="black"/>
</svg>
