<svg width="566" height="566" viewBox="0 0 566 566" fill="none" xmlns="http://www.w3.org/2000/svg">
<rect width="566" height="566" fill="#F5F5F5"/>
<rect width="566" height="566" fill="#FF7900"/>
<path d="M105.034 318.364C98.2159 318.364 92.3068 316.864 87.3068 313.864C82.3068 310.864 78.428 306.667 75.6705 301.273C72.9432 295.879 71.5795 289.576 71.5795 282.364C71.5795 275.152 72.9432 268.833 75.6705 263.409C78.428 257.985 82.3068 253.773 87.3068 250.773C92.3068 247.773 98.2159 246.273 105.034 246.273C111.852 246.273 117.761 247.773 122.761 250.773C127.761 253.773 131.625 257.985 134.352 263.409C137.11 268.833 138.489 275.152 138.489 282.364C138.489 289.576 137.11 295.879 134.352 301.273C131.625 306.667 127.761 310.864 122.761 313.864C117.761 316.864 111.852 318.364 105.034 318.364ZM105.125 305.182C108.822 305.182 111.913 304.167 114.398 302.136C116.883 300.076 118.731 297.318 119.943 293.864C121.186 290.409 121.807 286.561 121.807 282.318C121.807 278.045 121.186 274.182 119.943 270.727C118.731 267.242 116.883 264.47 114.398 262.409C111.913 260.348 108.822 259.318 105.125 259.318C101.337 259.318 98.1856 260.348 95.6705 262.409C93.1856 264.47 91.322 267.242 90.0795 270.727C88.8674 274.182 88.2614 278.045 88.2614 282.318C88.2614 286.561 88.8674 290.409 90.0795 293.864C91.322 297.318 93.1856 300.076 95.6705 302.136C98.1856 304.167 101.337 305.182 105.125 305.182ZM152.455 317V247.182H168.409V258.818H169.136C170.409 254.788 172.591 251.682 175.682 249.5C178.803 247.288 182.364 246.182 186.364 246.182C187.273 246.182 188.288 246.227 189.409 246.318C190.561 246.379 191.515 246.485 192.273 246.636V261.773C191.576 261.53 190.47 261.318 188.955 261.136C187.47 260.924 186.03 260.818 184.636 260.818C181.636 260.818 178.939 261.47 176.545 262.773C174.182 264.045 172.318 265.818 170.955 268.091C169.591 270.364 168.909 272.985 168.909 275.955V317H152.455ZM222.045 318.409C217.621 318.409 213.636 317.621 210.091 316.045C206.576 314.439 203.788 312.076 201.727 308.955C199.697 305.833 198.682 301.985 198.682 297.409C198.682 293.47 199.409 290.212 200.864 287.636C202.318 285.061 204.303 283 206.818 281.455C209.333 279.909 212.167 278.742 215.318 277.955C218.5 277.136 221.788 276.545 225.182 276.182C229.273 275.758 232.591 275.379 235.136 275.045C237.682 274.682 239.53 274.136 240.682 273.409C241.864 272.652 242.455 271.485 242.455 269.909V269.636C242.455 266.212 241.439 263.561 239.409 261.682C237.379 259.803 234.455 258.864 230.636 258.864C226.606 258.864 223.409 259.742 221.045 261.5C218.712 263.258 217.136 265.333 216.318 267.727L200.955 265.545C202.167 261.303 204.167 257.758 206.955 254.909C209.742 252.03 213.152 249.879 217.182 248.455C221.212 247 225.667 246.273 230.545 246.273C233.909 246.273 237.258 246.667 240.591 247.455C243.924 248.242 246.97 249.545 249.727 251.364C252.485 253.152 254.697 255.591 256.364 258.682C258.061 261.773 258.909 265.636 258.909 270.273V317H243.091V307.409H242.545C241.545 309.348 240.136 311.167 238.318 312.864C236.53 314.53 234.273 315.879 231.545 316.909C228.848 317.909 225.682 318.409 222.045 318.409ZM226.318 306.318C229.621 306.318 232.485 305.667 234.909 304.364C237.333 303.03 239.197 301.273 240.5 299.091C241.833 296.909 242.5 294.53 242.5 291.955V283.727C241.985 284.152 241.106 284.545 239.864 284.909C238.652 285.273 237.288 285.591 235.773 285.864C234.258 286.136 232.758 286.379 231.273 286.591C229.788 286.803 228.5 286.985 227.409 287.136C224.955 287.47 222.758 288.015 220.818 288.773C218.879 289.53 217.348 290.591 216.227 291.955C215.106 293.288 214.545 295.015 214.545 297.136C214.545 300.167 215.652 302.455 217.864 304C220.076 305.545 222.894 306.318 226.318 306.318ZM291.909 276.091V317H275.455V247.182H291.182V259.045H292C293.606 255.136 296.167 252.03 299.682 249.727C303.227 247.424 307.606 246.273 312.818 246.273C317.636 246.273 321.833 247.303 325.409 249.364C329.015 251.424 331.803 254.409 333.773 258.318C335.773 262.227 336.758 266.97 336.727 272.545V317H320.273V275.091C320.273 270.424 319.061 266.773 316.636 264.136C314.242 261.5 310.924 260.182 306.682 260.182C303.803 260.182 301.242 260.818 299 262.091C296.788 263.333 295.045 265.136 293.773 267.5C292.53 269.864 291.909 272.727 291.909 276.091ZM383.818 344.636C377.909 344.636 372.833 343.833 368.591 342.227C364.348 340.652 360.939 338.53 358.364 335.864C355.788 333.197 354 330.242 353 327L367.818 323.409C368.485 324.773 369.455 326.121 370.727 327.455C372 328.818 373.712 329.939 375.864 330.818C378.045 331.727 380.788 332.182 384.091 332.182C388.758 332.182 392.621 331.045 395.682 328.773C398.742 326.53 400.273 322.833 400.273 317.682V304.455H399.455C398.606 306.152 397.364 307.894 395.727 309.682C394.121 311.47 391.985 312.97 389.318 314.182C386.682 315.394 383.364 316 379.364 316C374 316 369.136 314.742 364.773 312.227C360.439 309.682 356.985 305.894 354.409 300.864C351.864 295.803 350.591 289.47 350.591 281.864C350.591 274.197 351.864 267.727 354.409 262.455C356.985 257.152 360.455 253.136 364.818 250.409C369.182 247.652 374.045 246.273 379.409 246.273C383.5 246.273 386.864 246.97 389.5 248.364C392.167 249.727 394.288 251.379 395.864 253.318C397.439 255.227 398.636 257.03 399.455 258.727H400.364V247.182H416.591V318.136C416.591 324.106 415.167 329.045 412.318 332.955C409.47 336.864 405.576 339.788 400.636 341.727C395.697 343.667 390.091 344.636 383.818 344.636ZM383.955 303.091C387.439 303.091 390.409 302.242 392.864 300.545C395.318 298.848 397.182 296.409 398.455 293.227C399.727 290.045 400.364 286.227 400.364 281.773C400.364 277.379 399.727 273.53 398.455 270.227C397.212 266.924 395.364 264.364 392.909 262.545C390.485 260.697 387.5 259.773 383.955 259.773C380.288 259.773 377.227 260.727 374.773 262.636C372.318 264.545 370.47 267.167 369.227 270.5C367.985 273.803 367.364 277.561 367.364 281.773C367.364 286.045 367.985 289.788 369.227 293C370.5 296.182 372.364 298.667 374.818 300.455C377.303 302.212 380.348 303.091 383.955 303.091ZM464.364 318.364C457.364 318.364 451.318 316.909 446.227 314C441.167 311.061 437.273 306.909 434.545 301.545C431.818 296.152 430.455 289.803 430.455 282.5C430.455 275.318 431.818 269.015 434.545 263.591C437.303 258.136 441.152 253.894 446.091 250.864C451.03 247.803 456.833 246.273 463.5 246.273C467.803 246.273 471.864 246.97 475.682 248.364C479.53 249.727 482.924 251.848 485.864 254.727C488.833 257.606 491.167 261.273 492.864 265.727C494.561 270.152 495.409 275.424 495.409 281.545V286.591H438.182V275.5H479.636C479.606 272.348 478.924 269.545 477.591 267.091C476.258 264.606 474.394 262.652 472 261.227C469.636 259.803 466.879 259.091 463.727 259.091C460.364 259.091 457.409 259.909 454.864 261.545C452.318 263.152 450.333 265.273 448.909 267.909C447.515 270.515 446.803 273.379 446.773 276.5V286.182C446.773 290.242 447.515 293.727 449 296.636C450.485 299.515 452.561 301.727 455.227 303.273C457.894 304.788 461.015 305.545 464.591 305.545C466.985 305.545 469.152 305.212 471.091 304.545C473.03 303.848 474.712 302.833 476.136 301.5C477.561 300.167 478.636 298.515 479.364 296.545L494.727 298.273C493.758 302.333 491.909 305.879 489.182 308.909C486.485 311.909 483.03 314.242 478.818 315.909C474.606 317.545 469.788 318.364 464.364 318.364Z" fill="white"/>
<path d="M480.284 232.42V230.545H493.375V232.42H487.886V248H485.773V232.42H480.284ZM496.637 230.545H499.16L505.092 245.034H505.296L511.228 230.545H513.751V248H511.773V234.739H511.603L506.148 248H504.239L498.785 234.739H498.614V248H496.637V230.545Z" fill="white"/>
</svg>
