<svg width="300" height="300" viewBox="0 0 300 300" fill="none" xmlns="http://www.w3.org/2000/svg">
<rect width="300" height="300" fill="white" fill-opacity="0.26"/>
<path d="M93.3239 140.869H86.9489C86.767 139.824 86.4318 138.898 85.9432 138.091C85.4545 137.273 84.8466 136.58 84.1193 136.011C83.392 135.443 82.5625 135.017 81.6307 134.733C80.7102 134.438 79.7159 134.29 78.6477 134.29C76.75 134.29 75.0682 134.767 73.6023 135.722C72.1364 136.665 70.9886 138.051 70.1591 139.881C69.3295 141.699 68.9148 143.92 68.9148 146.545C68.9148 149.216 69.3295 151.466 70.1591 153.295C71 155.114 72.1477 156.489 73.6023 157.42C75.0682 158.341 76.7443 158.801 78.6307 158.801C79.6761 158.801 80.6534 158.665 81.5625 158.392C82.483 158.108 83.3068 157.693 84.0341 157.148C84.7727 156.602 85.392 155.932 85.892 155.136C86.4034 154.341 86.7557 153.432 86.9489 152.409L93.3239 152.443C93.0852 154.102 92.5682 155.659 91.7727 157.114C90.9886 158.568 89.9602 159.852 88.6875 160.966C87.4148 162.068 85.9261 162.932 84.2216 163.557C82.517 164.17 80.625 164.477 78.5455 164.477C75.4773 164.477 72.7386 163.767 70.3295 162.347C67.9205 160.926 66.0227 158.875 64.6364 156.193C63.25 153.511 62.5568 150.295 62.5568 146.545C62.5568 142.784 63.2557 139.568 64.6534 136.898C66.0511 134.216 67.9545 132.165 70.3636 130.744C72.7727 129.324 75.5 128.614 78.5455 128.614C80.4886 128.614 82.2955 128.886 83.9659 129.432C85.6364 129.977 87.125 130.778 88.4318 131.835C89.7386 132.881 90.8125 134.165 91.6534 135.688C92.5057 137.199 93.0625 138.926 93.3239 140.869ZM130.308 146.545C130.308 150.307 129.604 153.528 128.195 156.21C126.797 158.881 124.888 160.926 122.467 162.347C120.058 163.767 117.325 164.477 114.268 164.477C111.212 164.477 108.473 163.767 106.053 162.347C103.643 160.915 101.734 158.864 100.325 156.193C98.9276 153.511 98.2287 150.295 98.2287 146.545C98.2287 142.784 98.9276 139.568 100.325 136.898C101.734 134.216 103.643 132.165 106.053 130.744C108.473 129.324 111.212 128.614 114.268 128.614C117.325 128.614 120.058 129.324 122.467 130.744C124.888 132.165 126.797 134.216 128.195 136.898C129.604 139.568 130.308 142.784 130.308 146.545ZM123.95 146.545C123.95 143.898 123.536 141.665 122.706 139.847C121.888 138.017 120.751 136.636 119.297 135.705C117.842 134.761 116.166 134.29 114.268 134.29C112.371 134.29 110.695 134.761 109.24 135.705C107.786 136.636 106.643 138.017 105.814 139.847C104.996 141.665 104.587 143.898 104.587 146.545C104.587 149.193 104.996 151.432 105.814 153.261C106.643 155.08 107.786 156.46 109.24 157.403C110.695 158.335 112.371 158.801 114.268 158.801C116.166 158.801 117.842 158.335 119.297 157.403C120.751 156.46 121.888 155.08 122.706 153.261C123.536 151.432 123.95 149.193 123.95 146.545ZM136.287 164V129.091H142.611V158.699H157.986V164H136.287ZM169.27 164H162.52L174.81 129.091H182.616L194.923 164H188.173L178.849 136.25H178.577L169.27 164ZM169.491 150.312H187.901V155.392H169.491V150.312ZM199.521 129.091H207.26L217.624 154.386H218.033L228.396 129.091H236.135V164H230.067V140.017H229.743L220.095 163.898H215.561L205.913 139.966H205.589V164H199.521V129.091Z" fill="#004481"/>
</svg>
