<svg width="48" height="48" viewBox="0 0 48 48" fill="none" xmlns="http://www.w3.org/2000/svg">
<circle cx="24" cy="24" r="24" fill="#F6E05E"/>
<path d="M34.2602 12.9521L15.9035 12.5726C15.7651 13.5198 16.4883 14.3739 17.4453 14.3937L32.4099 14.7031L32.6236 14.7031C33.4948 14.7031 33.8412 15.8298 33.1206 16.3193C33.0407 16.3735 32.9703 16.4405 32.9121 16.5174L24.0171 28.2778C23.4364 29.0455 23.6503 30.1474 24.4761 30.6422L35.7937 16.1845C36.8096 14.8868 35.908 12.9862 34.2602 12.9521Z" fill="black" stroke="black" stroke-width="0.1"/>
<path d="M13.3869 34.2371L31.7468 34.4113C31.8745 33.4626 31.1418 32.6166 30.1846 32.6075L15.2813 32.4661C15.2389 32.4657 15.1965 32.4684 15.1544 32.474C14.2637 32.5926 13.7716 31.473 14.4614 30.897L14.5238 30.8449C14.58 30.7979 14.6305 30.7444 14.674 30.6854L23.4579 18.7978C24.03 18.0236 23.8038 16.9242 22.9726 16.4387L11.8173 31.0221C10.816 32.3311 11.7389 34.2215 13.3869 34.2371Z" fill="black" stroke="black" stroke-width="0.1"/>
<rect x="18.5645" y="23.093" width="10.1854" height="1.81838" fill="black"/>
</svg>
